<svg width="64" height="64" viewBox="0 0 64 64" fill="none" xmlns="http://www.w3.org/2000/svg">
  <rect width="64" height="64" rx="14" fill="#0B1638"/>
  <path d="M35.5 41H22.5C17.9 41 14 37.4 14 32.8C14 28.5 17.5 25 21.8 24.8C23.4 19.3 28.6 15 34.8 15C40.7 15 45.6 18.7 47.5 23.8C52 24.4 56 28.4 56 33.1C56 38.5 51.5 41 46.5 41H41.9" stroke="#F8FAFC" stroke-width="4" stroke-linecap="round"/>
  <path d="M26 46C33.2 39.3 40.2 32.8 47.6 26" stroke="#45D3C2" stroke-width="4" stroke-linecap="round"/>
  <path d="M47.6 26L44.4 35.3M47.6 26L38.3 28.9" stroke="#45D3C2" stroke-width="4" stroke-linecap="round" stroke-linejoin="round"/>
</svg>
