<svg width="220" height="56" viewBox="0 0 220 56" fill="none" xmlns="http://www.w3.org/2000/svg" role="img" aria-labelledby="title desc">
  <title id="title">Londonsky logo</title>
  <desc id="desc">A professional wordmark with a cloud and travel route symbol.</desc>
  <rect width="220" height="56" rx="12" fill="#0B1638"/>
  <path d="M34 35.5H24.5C20.9 35.5 18 32.7 18 29.2C18 25.8 20.7 23 24.1 22.9C25.4 18.4 29.6 15 34.6 15C39.3 15 43.2 17.9 44.8 22C48.7 22.4 52 25.7 52 29.7C52 34 48.4 35.5 44.1 35.5H39.8" stroke="#F8FAFC" stroke-width="3" stroke-linecap="round"/>
  <path d="M30 39.5C35.8 34.1 41.1 29.1 47 23.8" stroke="#45D3C2" stroke-width="3" stroke-linecap="round"/>
  <path d="M47 23.8L44.1 31.2M47 23.8L39.6 26" stroke="#45D3C2" stroke-width="3" stroke-linecap="round" stroke-linejoin="round"/>
  <text x="68" y="28" fill="#FFFFFF" font-family="Inter, Arial, sans-serif" font-size="21" font-weight="800" letter-spacing="0">London</text>
  <text x="144" y="28" fill="#45D3C2" font-family="Inter, Arial, sans-serif" font-size="21" font-weight="800" letter-spacing="0">sky</text>
  <text x="70" y="42" fill="#AAB7D9" font-family="Inter, Arial, sans-serif" font-size="9" font-weight="700" letter-spacing="2">AI TRAVEL CLOUD</text>
</svg>
